<mxfile host="app.diagrams.net" modified="2023-07-13T15:51:27.057Z" agent="Mozilla/5.0 (Windows NT 10.0; Win64; x64) AppleWebKit/537.36 (KHTML, like Gecko) Chrome/114.0.0.0 Safari/537.36" version="21.6.2" etag="vbvWwwp8w8jNg9ci_MHv" type="github">
  <diagram name="Page-1" id="eYoHBY9Apu2Gpu-Iu8_F">
    <mxGraphModel>
      <root>
        <mxCell id="0" />
        <mxCell id="1" parent="0" />
      </root>
    </mxGraphModel>
  </diagram>
</mxfile>
